<?xml version="1.0" standalone="no"?>
<!DOCTYPE svg PUBLIC "-//W3C//DTD SVG 20010904//EN"
 "http://www.w3.org/TR/2001/REC-SVG-20010904/DTD/svg10.dtd">
<svg version="1.0" xmlns="http://www.w3.org/2000/svg"
 width="50.000000pt" height="50.000000pt" viewBox="0 0 730.000000 1858.000000"
 preserveAspectRatio="xMidYMid meet">

<g transform="translate(0.000000,1858.000000) scale(0.100000,-0.100000)"
fill="#000000" stroke="none">
<path d="M3385 18541 c-195 -35 -408 -122 -584 -238 -116 -77 -320 -281 -398
-398 -115 -173 -190 -347 -235 -546 -20 -91 -23 -131 -23 -314 0 -183 3 -223
23 -314 68 -301 198 -539 416 -757 217 -216 464 -352 766 -419 102 -23 394
-31 513 -15 215 29 464 126 649 252 154 105 325 281 430 444 83 130 169 345
203 509 34 167 35 434 0 600 -128 621 -625 1099 -1245 1200 -131 21 -385 19
-515 -4z"/>
<path d="M1860 15130 c-393 -24 -752 -156 -1067 -394 -126 -94 -319 -293 -410
-421 -201 -283 -319 -596 -353 -940 -8 -78 -10 -834 -8 -2570 l3 -2460 29 -84
c100 -286 358 -463 656 -448 273 13 499 183 598 449 l27 73 3 2193 2 2192 170
0 170 0 1 -2842 c1 -1564 5 -4258 8 -5988 l7 -3145 21 -75 c97 -335 355 -577
690 -646 120 -25 321 -15 433 21 299 96 507 309 603 618 l22 72 5 3515 5 3515
180 0 180 0 5 -3515 5 -3515 22 -72 c50 -159 125 -288 232 -394 108 -107 218
-174 371 -225 80 -27 95 -28 260 -28 165 0 180 1 260 28 310 102 527 332 612
648 l23 83 2 5973 3 5972 170 0 170 0 2 -2187 3 -2188 28 -80 c95 -267 322
-439 597 -452 298 -15 561 166 657 451 l28 81 0 2515 c0 2026 -3 2532 -13
2600 -90 580 -419 1079 -915 1387 -219 135 -466 224 -748 270 -94 15 -271 17
-1864 19 -968 1 -1816 -2 -1885 -6z"/>
</g>
</svg>
